<svg width="32" height="32" viewBox="0 0 64 64" xmlns="http://www.w3.org/2000/svg">
  <defs>
    <linearGradient id="bgGradient32" x1="0%" y1="0%" x2="100%" y2="100%">
      <stop offset="0%" style="stop-color:#3B82F6;stop-opacity:1" />
      <stop offset="100%" style="stop-color:#10B981;stop-opacity:1" />
    </linearGradient>
  </defs>
  <rect x="4" y="4" width="56" height="56" rx="12" ry="12" fill="url(#bgGradient32)" />
  <path d="M32 48c-1.5 0-3-0.5-4-1.5C20 38 16 32 16 26c0-6 4-10 10-10 3 0 6 1.5 6 4 0-2.5 3-4 6-4 6 0 10 4 10 10 0 6-4 12-12 20.5C35 47.5 33.5 48 32 48z" fill="#FFFFFF" />
  <rect x="30" y="20" width="4" height="12" fill="#3B82F6" opacity="0.3" rx="2" />
  <rect x="24" y="26" width="12" height="4" fill="#3B82F6" opacity="0.3" rx="2" />
</svg>
